<?xml version="1.0" encoding="UTF-8"?>
<svg version="1.1" viewBox="0 0 2048 1366" width="547" height="365" xmlns="http://www.w3.org/2000/svg">
<path transform="translate(0)" d="m0 0h2048v1366h-2048z" fill="#FEFEFE"/>
<path transform="translate(1051,492)" d="m0 0h63l14 4 10 6 7 8 8 16 10 32 14 46 10 33 15 49 13 43 7 23v3h2l3-12 19-63 9-30 15-49 12-41 13-40 7-12 8-8 12-6 9-2h62l12 3 12 6 7 7 7 14 6 21 11 48 8 34 11 48 11 47 9 39 20 86 6 25v4h-103l-10-42-15-65-9-40-20-85-2-11-2 1-4 15-18 58-19 59-16 50-11 33-6 10-8 8-11 6-7 2-8 1h-42l-11-2-12-5-8-6-6-8-5-11-9-27-9-29-12-39-18-57-10-32-9-29v-2l-2 1-5 25-14 62-18 79-13 57-5 22-1 1h-102l2-11 13-56 16-70 13-55 16-71 18-77 5-16 4-8 7-8 10-6z"/>
<path transform="translate(706,491)" d="m0 0h275l-2 6-5 13-13 52-6 27-1 1-290 1-9 5-5 7-2 6v13l5 10 7 6 5 2 186 1 22 3 20 6 16 8 11 7 14 12-2 11-9 40-12 53-17 73-3 11-7 3-12 3-19 3h-304l1-5 15-53 10-35 2-6 265-1 8-3 5-4 5-10 1-10-4-13-5-5-4-3-7-2-180-1-20-2-17-4-15-6-17-9-17-14-11-13-10-18-5-14-4-16-1-18 1-20 5-21 9-20 10-15 15-15 15-10 14-7 20-6 19-3z"/>
</svg>
