<?xml version="1.0" encoding="UTF-8" standalone="no"?>
<svg
   id="svg"
   version="1.1"
   viewBox="0 0 300 220.16808"
   width="300"
   height="220.16808"
   sodipodi:docname="vectorink-vectorizer-result.svg"
   inkscape:export-filename="s-schedulix-fekete.svg"
   inkscape:export-xdpi="96"
   inkscape:export-ydpi="96"
   xmlns:inkscape="http://www.inkscape.org/namespaces/inkscape"
   xmlns:sodipodi="http://sodipodi.sourceforge.net/DTD/sodipodi-0.dtd"
   xmlns="http://www.w3.org/2000/svg"
   xmlns:svg="http://www.w3.org/2000/svg">
  <defs
     id="defs15" />
  <sodipodi:namedview
     id="namedview15"
     pagecolor="#ffffff"
     bordercolor="#000000"
     borderopacity="0.25"
     inkscape:showpageshadow="2"
     inkscape:pageopacity="0.0"
     inkscape:pagecheckerboard="0"
     inkscape:deskcolor="#d1d1d1"
     inkscape:export-bgcolor="#ffffff00">
    <inkscape:page
       x="0"
       y="0"
       width="300"
       height="220.16808"
       id="page2"
       margin="0"
       bleed="0" />
  </sodipodi:namedview>
  <svg
     version="1.1"
     id="svg15"
     width="100%"
     height="100%">
    <defs
       id="defs1">
      <clipPath
         id="clip-1">
        <rect
           x="0"
           y="0"
           transform="scale(0.14648,0.14649)"
           width="2048"
           height="1503"
           fill="none"
           id="rect1" />
      </clipPath>
    </defs>
    <g
       clip-path="url(#clip-1)"
       fill="none"
       fill-rule="nonzero"
       stroke="none"
       stroke-width="1"
       stroke-linecap="butt"
       stroke-linejoin="miter"
       stroke-miterlimit="10"
       stroke-dasharray="none"
       stroke-dashoffset="0"
       font-family="none"
       font-weight="none"
       font-size="none"
       text-anchor="none"
       style="mix-blend-mode:normal"
       id="g15">
      <path
         d="m 136.55713,54.41579 0.13828,2.9e-4 c 6.74531,-0.01846 13.20938,2.70032 17.91445,7.53435 4.57324,4.61664 6.96533,10.78472 6.94922,17.24679 l -13.89551,-0.0013 c -0.0205,-0.34541 -0.0527,-0.68995 -0.0981,-1.03302 -0.3999,-3.04148 -1.82666,-5.70035 -4.29932,-7.55398 -2.31665,-1.73263 -5.22173,-2.48454 -8.08799,-2.09313 -2.82979,0.41397 -5.54238,1.9506 -7.24277,4.26274 -1.66099,2.25837 -2.43516,4.98828 -1.98896,7.774 1.10537,6.90138 8.26787,11.16573 13.72734,14.4413 l 7.5416,4.5018 c 3.96387,2.36823 7.80615,4.93379 11.51367,7.68699 0.8291,0.58961 1.65088,1.18492 2.39063,1.88747 1.99658,1.89684 3.30176,4.48364 3.36035,7.26335 0.0381,1.89787 -0.62256,3.77171 -1.97021,5.12978 -1.34473,1.35675 -3.24609,2.10559 -5.15186,2.10954 -1.84131,0.004 -3.75879,-0.7106 -5.06836,-2.02253 -2.43311,-2.43869 -2.09033,-5.66621 -2.09326,-8.82298 -2.3042,-0.0823 -5.99341,0.35127 -8.07759,-0.15777 -1.98442,-0.48487 -13.95806,-8.0283 -16.36685,-9.74526 -1.66011,-1.1858 -3.24287,-2.47619 -4.73892,-3.86327 -5.4082,-5.0145 -8.81675,-11.39776 -9.0832,-18.83484 -0.22339,-6.73908 2.26216,-13.2867 6.90117,-18.17991 4.61133,-4.88779 11.09927,-7.36267 17.72622,-7.53039 z"
         fill="#201f20"
         id="path2"
         style="fill:#000000" />
      <path
         d="m 136.52271,72.12636 c 0.056,-0.0072 0.11147,-0.01802 0.16787,-0.02168 1.74595,-0.11426 3.75557,0.66299 4.9812,1.8945 2.50137,2.51267 2.24648,5.73184 2.22275,8.98998 2.22935,0.04204 4.46484,-0.07617 6.69287,-0.0041 1.07373,0.03472 2.04785,0.16128 3.05127,0.55826 2.0874,0.82559 4.12793,2.23449 6.05713,3.38323 3.53906,2.10544 7.19092,4.11273 10.44287,6.64767 1.74463,1.35968 3.33545,2.9284 4.84131,4.54516 4.71826,5.0646 7.4707,12.21662 7.21289,19.14158 -0.25488,6.83664 -3.19482,12.98699 -8.20898,17.60378 -4.83252,4.39179 -11.19141,6.71769 -17.71582,6.48009 -7.36816,-0.3208 -13.19619,-3.69759 -18.09009,-9.0121 -3.82969,-4.52128 -5.64727,-9.95473 -5.71904,-15.83115 4.64458,-0.0791 9.34863,-0.11279 13.99131,0.0352 0.003,0.10049 0.006,0.20098 0.011,0.30132 0.14473,2.95681 1.46455,5.73301 3.66768,7.7113 2.15039,1.91457 4.97607,2.88914 7.8501,2.70662 2.90918,-0.15938 5.68799,-1.58307 7.61279,-3.75765 1.88232,-2.12639 2.77441,-5.06504 2.58252,-7.88196 -0.21973,-3.21565 -1.92627,-6.44479 -4.125,-8.74989 -2.31592,-2.42903 -5.24121,-4.09384 -8.05957,-5.86426 -4.81055,-3.022 -9.70942,-5.8959 -14.52979,-8.90091 -2.78862,-1.73835 -5.84927,-3.49705 -8.31445,-5.67251 -1.98853,-1.7549 -3.40386,-4.11449 -3.53716,-6.80954 -0.0989,-1.99836 0.54023,-3.81669 1.90078,-5.2937 1.32349,-1.43673 3.08774,-2.11657 5.01357,-2.19919 z"
         fill="#201f20"
         id="path3"
         style="fill:#000000" />
      <path
         id="path4"
         d="m 149.41992,151.17578 c -2.49159,0.0255 -5.03335,0.12183 -6.75,0.10938 l -0.0117,23.48242 c 3.17065,0.0102 11.08985,0.38917 13.76172,-0.30664 0.84814,-0.22119 1.57569,-0.64453 2.23633,-1.21875 0.63427,-0.81446 1.02344,-1.48535 1.22852,-2.50781 0.50098,-2.49465 0.16796,-5.35447 0.16796,-7.90626 0.001,-2.33205 0.21436,-4.80222 -0.0918,-7.11523 -0.17431,-1.32862 -0.75782,-2.45312 -1.84766,-3.25586 -0.66065,-0.4878 -1.44141,-0.79736 -2.24414,-0.95703 -1.51611,-0.30322 -3.95763,-0.34967 -6.44922,-0.32422 z m 3.07422,3.80078 c 1.31104,0.0644 2.1206,0.27489 3.02148,1.26953 0.30616,1.7007 0.42237,11.58349 0.0723,13.14649 -0.0879,0.39258 -0.36084,0.75537 -0.58789,1.08203 -1.35205,1.14112 -6.19189,0.65381 -8.05664,0.62891 v -16.06641 c 1.83691,-0.0337 3.71826,-0.14991 5.55078,-0.0606 z"
         style="fill:#000000"
         inkscape:label="d" />
      <path
         d="m 153.01318,54.44289 c 5.18262,-0.61495 11.14307,1.18844 15.42041,4.12226 5.77441,3.96112 9.4043,9.73442 10.67285,16.60269 0.18457,1.00606 0.73682,3.11517 0.14795,3.97372 l -0.50684,0.05772 -13.16162,0.0079 c -0.71631,-9.12401 -3.92139,-15.9252 -10.84424,-21.9963 -0.67969,-0.59488 -2.34229,-1.4984 -2.60742,-2.27624 0.24463,-0.36695 0.46729,-0.35904 0.87891,-0.49175 z"
         fill="#201f20"
         id="path6"
         style="fill:#000000" />
      <path
         d="m 114.57964,116.49615 13.82065,0.005 c 1.15137,8.59945 2.66382,13.73655 8.91577,20.09975 1.33125,1.35485 3.60073,2.86277 4.66187,4.16151 l -0.0781,0.21284 c -0.90894,0.1273 -1.82446,0.24536 -2.74204,0.28345 -6.202,0.25767 -12.2855,-2.48777 -16.75444,-6.68956 -5.05386,-4.7517 -7.58613,-11.21876 -7.82373,-18.07312 z"
         fill="#201f20"
         id="path7"
         style="fill:#000000" />
      <path
         d="m 99.79937,151.28901 4.38193,-10e-4 0.003,9.73984 8.74556,0.0103 0.004,-9.74277 4.40435,-0.001 c -0.008,2.54299 0.21416,22.94846 -0.18647,23.47287 l -4.22798,-10e-4 0.008,-10.07236 c -2.91797,-0.0147 -5.83594,-0.0132 -8.75376,0.004 l 0.004,10.07089 h -4.39834 z"
         fill="#201f20"
         id="path8"
         inkscape:label="h"
         style="fill:#000000" />
      <path
         d="m 164.81982,151.29194 4.38281,-0.003 c -0.004,6.22564 -0.0542,12.45715 0.0205,18.68279 0.24902,0.33838 0.52588,0.70313 0.8584,0.96388 1.38135,1.07814 5.07861,0.50538 6.76758,0.35596 0.31055,-0.21094 0.6665,-0.4292 0.92432,-0.7046 0.32959,-0.35303 0.38379,-0.75587 0.43652,-1.21583 0.24316,-2.14162 0.0747,-4.42387 0.0688,-6.5816 l -0.003,-11.49913 h 4.38135 l -0.001,3.57865 0.0161,9.65634 c 0.001,2.10354 0.27539,4.81059 -0.25488,6.84674 -0.22412,0.85694 -0.7749,1.65675 -1.39014,2.28371 -2.07715,2.11232 -6.78076,1.41212 -9.57275,1.44874 -1.93066,0.0264 -3.70752,-0.12012 -5.14746,-1.55128 -0.59326,-0.59034 -1.03711,-1.28029 -1.22607,-2.105 -0.55078,-2.41701 -0.27686,-5.29692 -0.27539,-7.78425 z"
         fill="#201f20"
         id="path9"
         inkscape:label="u"
         style="fill:#000000" />
      <path
         d="m 215.85791,151.29926 c 1.48682,-0.022 2.97656,-0.004 4.46338,-0.003 0.53174,1.32277 1.30078,2.58401 1.95117,3.85404 0.94043,1.83547 1.80762,3.78519 2.94141,5.50786 0.76904,-1.32277 4.02539,-8.75545 4.92041,-9.19198 0.73389,-0.35889 3.40723,-0.32227 4.16309,-0.0161 0.0498,0.11719 0.0791,0.16846 0.10547,0.28565 0.38965,1.71388 -4.84717,9.25936 -5.93408,11.17979 1.44287,2.09328 5.87109,8.33504 6.53613,10.36533 0.16553,0.50538 0.16846,0.93311 -0.0806,1.4004 l -0.5127,0.0879 -3.71631,-0.001 c -1.93213,-3.15384 -3.64014,-6.44537 -5.57812,-9.59921 l -5.51074,9.60068 -4.38135,-0.006 c -0.007,-0.48194 -0.0542,-1.07667 0.0937,-1.5381 0.58594,-1.8384 5.18555,-8.52254 6.55957,-10.33017 -2.20605,-3.08352 -4.021,-6.57867 -5.99707,-9.8204 z"
         fill="#201f20"
         id="path10"
         inkscape:label="x"
         style="fill:#000000" />
      <path
         d="m 122.71919,151.28901 16.1499,0.004 -0.0133,2.58987 -1.0897,1.09571 c -3.51621,0.20947 -7.13174,0.0454 -10.65645,0.0498 -0.0107,1.99514 -0.006,3.99027 0.0125,5.98541 l 8.47705,0.0381 -1.5e-4,3.61966 c -1.72705,0.0381 -7.102,-0.33106 -8.34756,0.14209 -0.21899,0.50538 -0.15439,1.08839 -0.15161,1.63039 l 0.0237,4.65825 11.73457,0.0308 0.006,3.62845 -16.14023,0.0117 c -0.0936,-7.8238 -0.004,-15.65933 -0.004,-23.48459 z"
         fill="#201f20"
         id="path11"
         inkscape:label="e"
         style="fill:#000000" />
      <path
         d="m 64.27676,151.37836 c 3.65903,-0.22266 7.37915,-0.0967 11.04595,-0.0879 l -0.01846,2.45803 c -0.36577,0.44678 -0.79541,0.83643 -1.20996,1.2378 -2.62969,0.12744 -5.56304,-0.36475 -8.12944,0.0908 -1.16924,0.20801 -1.66641,0.64161 -2.31929,1.58205 -0.01479,0.6709 -0.1062,1.48097 0.0064,2.13576 0.38877,2.26613 8.07363,2.20461 10.43687,3.98881 1.10273,0.8335 1.70098,2.42873 1.89141,3.75589 0.28271,1.96877 0.26953,4.39457 -0.98643,6.04986 -1.14214,1.50587 -2.61592,1.93361 -4.40962,2.16066 -3.84331,0.0923 -7.70361,0.019 -11.54883,0.0205 l 0.0085,-3.66068 c 3.00894,0.0132 8.97363,0.44971 11.56509,-0.40723 0.39229,-0.41309 0.70767,-0.86134 1.03242,-1.3257 0.02358,-0.71485 0.1207,-1.56447 0.0076,-2.2676 -0.10078,-0.62696 -0.50142,-1.20704 -1.04312,-1.53371 -2.29307,-1.38429 -6.71499,-0.74561 -9.3646,-2.751 -1.17671,-0.89063 -1.7521,-2.26027 -1.94165,-3.68998 -0.24917,-1.88234 -0.18809,-4.08695 1.01821,-5.65142 1.02949,-1.33302 2.32603,-1.90871 3.95889,-2.105 z"
         fill="#201f20"
         id="path12"
         inkscape:label="s"
         style="fill:#000000" />
      <path
         d="m 84.53086,151.37543 c 3.82061,-0.25635 7.73628,-0.0937 11.56743,-0.0879 0.0047,0.62696 0.07646,1.34034 -0.01011,1.95851 -0.12539,0.89503 -0.65142,1.26417 -1.3251,1.76222 -2.5812,0.0718 -5.18804,-0.14502 -7.76426,-0.003 -0.75879,0.0425 -2.0814,0.18897 -2.57329,0.83204 -0.75337,0.98731 -0.44956,11.96056 -0.32373,13.77112 0.19102,0.28272 0.38437,0.60792 0.62212,0.85401 1.10391,1.13966 6.06665,0.66358 7.63447,0.65186 l 3.73433,0.0146 8.8e-4,3.63138 c -3.19058,0.0117 -9.36108,0.35889 -12.24009,-0.16113 -0.7856,-0.14209 -1.53164,-0.39258 -2.17178,-0.88038 -1.14404,-0.87452 -1.74844,-1.80324 -1.93271,-3.23733 -0.30601,-2.38186 -0.31714,-13.12073 0.09038,-15.25502 0.14868,-0.77784 0.43901,-1.40919 0.93384,-2.03029 0.97354,-1.22316 2.25952,-1.65089 3.75762,-1.82082 z"
         fill="#201f20"
         id="path13"
         inkscape:label="c"
         style="fill:#000000" />
      <path
         d="m 188.05518,151.28901 4.37402,0.001 0.009,19.82099 11.46387,0.007 -0.009,3.64164 c -5.28076,0.082 -10.57471,0.004 -15.85693,0.004 z"
         fill="#201f20"
         id="path14"
         inkscape:label="l"
         style="fill:#000000" />
      <path
         d="m 207.27246,151.29047 h 4.38135 v 23.46555 l -4.38867,0.0102 z"
         fill="#201f20"
         id="path15"
         inkscape:label="i"
         style="fill:#000000" />
    </g>
  </svg>
</svg>
